<?xml version="1.0" encoding="utf-8"?>
<!-- Generator: Adobe Illustrator 28.0.0, SVG Export Plug-In . SVG Version: 6.00 Build 0)  -->
<svg version="1.1" id="Layer_1" xmlns="http://www.w3.org/2000/svg" xmlns:xlink="http://www.w3.org/1999/xlink" x="0px" y="0px"
	 viewBox="0 0 300 300" style="enable-background:new 0 0 300 300;" xml:space="preserve">
<g>
	<path d="M45.8,134.8H45c-1.3-3.2-4.7-6.2-9.1-7.8c-2.9-1-8.4-0.8-8.4-0.8v40.4c0,3.7,1.6,6.3,3.7,7.2c0.3,0.1,0.5,0.2,0.7,0.3v0.7
		H14v-0.7c0.2-0.1,0.5-0.2,0.7-0.3c2.2-0.9,3.7-3.5,3.7-7.2v-40.4c0,0-5.5-0.2-8.4,0.8c-4.5,1.6-7.9,4.6-9.1,7.8H0.3l1.8-9.5H44
		L45.8,134.8z"/>
	<path d="M77.5,170.3c-0.3,0.7-0.6,1.4-1.2,2.2c-1.1,1.8-3.2,2.8-5.9,2.8c-4.1,0-6.7-2.3-6.7-6.1v-2l0-6.4c-1.2-2.5-3.8-4.3-6.7-4.3
		c-4.1,0-7.5,3.3-7.5,7.5s3.3,7.5,7.5,7.5c1.5,0,2.6-0.4,3.8-1.2h0.5c-0.1,0.1-2.5,2.5-2.5,2.5c-2.2,1.9-4.9,2.7-7.8,2.7
		c-3.2,0-5.5-0.9-6.9-2.7c-1.4-1.9-2-3.9-2-6.1c0.1-1.8,0.6-3.6,1.6-4.9c0.9-1.2,1.5-1.7,3.8-2.8c2.1-1,2.8-1.4,5.6-2.3l3.2-1
		c0.7-0.2,1.9-0.5,3.6-1c1.7-0.5,3-0.7,3.7-1l0-4.2c0-7.2-2.6-10.6-7.6-9.7c-3.3,0.6-5.3,2.2-5.3,6.4c0,1.3,1.1,3.4,1.2,4.6
		c0.2,5.1-8.8,6-8.5-0.4c0.1-2,0.8-3.9,2.4-5.5c3.1-3.4,7-5,10.6-5.6c6.6-1.2,16.3,0.2,15.9,10.3l0,17.4c0,3.7,2.1,5.8,4.8,3.3
		L77.5,170.3z"/>
	<path d="M95.1,174.3v0.6l-16.7,0v-0.5c0.2-0.1,0.5-0.2,0.8-0.3c2-0.7,3.3-2.8,3.3-5.7l0-23.2c-0.1-2.7-1.3-4.6-3-5.3
		c-0.3-0.1-0.6-0.2-0.9-0.3V139l12.2,0v0l0.1,29.2c0,3,1.3,5.1,3.3,5.7C94.6,174.1,94.8,174.2,95.1,174.3z M115.9,174.8l-16.7,0
		v-0.5c0.2-0.1,0.5-0.2,0.8-0.3c2-0.7,3.3-2.8,3.3-5.7c0,0,0-15.5-0.1-16.6c-0.1-2.4-0.8-5-2.4-5.9c-1.3-1-3.1-1.2-5.4-0.7
		c-1,0.2-2,0.6-2.8,1.1v-0.9c1.1-1,2.3-1.9,3.6-2.7c2.7-1.9,5.7-2.6,8.8-2.4c3.6,0.3,5,2.2,5.9,4.5c0.7,1.7,0.7,5.2,0.7,5.9
		c0,1.5,0.1,17.8,0.1,17.8c0,3,1.3,5.1,3.3,5.7c0.3,0.1,0.6,0.2,0.8,0.3L115.9,174.8z"/>
	<path d="M133.2,139.5c-0.3,0.1-0.6,0.2-0.9,0.3c-1.7,0.7-3,2.7-3,5.6l0.1,29.8c0,14.6-11.7,15.8-17.8,13.9c-4.2-1.2-6.5-3.5-6.9-7
		c0-0.3-0.1-0.7-0.1-1.1c0-0.7,0.2-1.2,0.5-1.8c0.6-1.3,1.9-2.2,3.4-2.2c0.1,0,0.1,0,0.2,0c0,0,0,0,0,0c2.3,0,4.2,1.9,4.2,4.1
		c0,0.4-0.1,0.7-0.1,1c0,0.1-0.7,1.9-0.7,2.8c0,1.5,0.8,2.9,2,3.6c0.3,0.3,0.7,0.4,1.2,0.5c0.4,0.1,0.7,0.2,1.2,0.2
		c2.4,0,4.6-1.9,4.6-4.3c0-1.2,0-4.3,0-5.4c0-0.1,0-28.8,0-34.4h0c-0.1-2.8-1.3-4.8-3-5.4c-0.3-0.1-0.6-0.2-0.9-0.3v-0.5l16.1,0
		L133.2,139.5z M119.8,129.7c0-2.7,2.2-4.9,4.9-4.9c2.7,0,4.9,2.2,4.9,4.9c0,2.8-2.2,5.1-4.9,5.1C122,134.8,119.8,132.5,119.8,129.7
		z"/>
	<path d="M170.4,170.3c-0.3,0.7-0.6,1.4-1.2,2.2c-1.1,1.8-3.2,2.8-5.9,2.8c-4.1,0-6.7-2.3-6.7-6.1v-2l0-6.4
		c-1.2-2.5-3.8-4.3-6.7-4.3c-4.1,0-7.5,3.3-7.5,7.5s3.3,7.5,7.5,7.5c1.5,0,2.6-0.4,3.8-1.2h0.5c-0.1,0.1-2.5,2.5-2.5,2.5
		c-2.2,1.9-4.9,2.7-7.8,2.7c-3.2,0-5.5-0.9-6.9-2.7c-1.4-1.9-2-3.9-2-6.1c0.1-1.8,0.6-3.6,1.6-4.9c0.9-1.2,1.5-1.7,3.8-2.8
		c2.1-1,2.8-1.4,5.6-2.3l3.2-1c0.7-0.2,1.9-0.5,3.6-1c1.7-0.5,3-0.7,3.7-1l0-4.2c0-7.2-2.6-10.6-7.6-9.7c-3.3,0.6-5.3,2.2-5.3,6.4
		c0,1.3,1.1,3.4,1.2,4.6c0.2,5.1-8.8,6-8.5-0.4c0.1-2,0.8-3.9,2.4-5.5c3.1-3.4,7-5,10.6-5.6c6.6-1.2,16.3,0.2,15.9,10.3l0,17.4
		c0,3.7,2.1,5.8,4.8,3.3L170.4,170.3z"/>
	<path d="M201.5,163.7c0.1,3-0.9,5.7-2.9,8c-2,2.2-5.2,3.3-9.6,3.3c-4.8,0-9.7-1.3-14.6-3.8l-0.2-11.4c2.3,4.4,5.3,7.9,8.8,10.3
		c2.8,2,5.6,3.1,8.4,3.4c2.8,0.2,4.5-0.5,5.1-2.3c1.1-3.5-1.9-7.1-10.2-10c-8.7-3.2-11.7-7-11.5-11.7c0.1-2.8,1.3-5.3,3.6-7.3
		c2.3-2.1,5.6-3.1,10-3.1c2,0,3.9,0.3,5.6,0.8c3.6,1,4.6,1.9,5,2.2l0,9.3c-1.6-3-3.6-5.6-6.2-7.7c-2.6-2.2-5.1-3.3-7.7-3.4
		c-3-0.1-4.8,1.6-5,3.9c-0.1,0.8,0.1,1.6,0.3,2.4c0.6,1.5,3.6,4.2,8.8,6C198.4,155.9,201.4,159,201.5,163.7z"/>
	<path d="M220.6,174.8l-16.1,0v-0.5c0.3-0.1,0.6-0.2,0.9-0.3c1.8-0.7,3-2.7,3-5.7l0-22.8c0-3-1.3-5.1-3-5.7
		c-0.3-0.1-0.6-0.2-0.9-0.3V139l16.1,0v0.5c-0.3,0.1-0.6,0.2-0.9,0.3c-1.8,0.7-3,2.8-3,5.7l0,22.8c0,3,1.3,5.1,3,5.7
		c0.3,0.1,0.6,0.2,0.9,0.3V174.8z M207.6,129.6c0-2.7,2.2-4.9,4.9-4.9c2.7,0,4.9,2.2,4.9,4.9c0,2.8-2.2,5.1-4.9,5.1
		C209.8,134.7,207.6,132.4,207.6,129.6z"/>
	<path d="M258.8,142.7c-0.4,1.7-2.3,2.5-4.8,1.4c-1.2-1-2.4-1.9-4.4-1.1c1.8,1.7,3.1,3.9,4.2,6.8c1.5,4.5,1.3,8.6-0.6,12.3
		c-1.9,3.7-4.8,6.1-9,7.3c-2.6,0.8-5.4,1-9,0.3c-1.3-0.3-2.6-0.9-3.9-1.7c-1.4,1.2-1.5,2.5-0.4,3.8c2,2.2,7,1.5,11.2,1.7
		c8.5,0.5,12.8,3.7,13.6,7c0.3,1,0.5,5.1-2.1,7.5c-2.6,2.3-5.7,4-14.6,4c-0.1,0-0.3,0-0.4,0c-0.1,0-0.2,0-0.3,0
		c-4.4-0.1-11.6-1.6-11.9-6.5c-0.2-3.5,2.7-5.4,4.7-6.1c-2.8-0.9-5.6-2.3-6-4.7c-0.5-2.5,1.5-4.8,5.7-7c-1.7-1.4-3.3-3.3-4.5-5.8
		c-1.9-3.9-2.2-7.8-1-11.6c1.2-3.8,3.7-6.7,7.4-8.7c4.4-2.2,8.5-2.6,12.6-1.2c1.4,0.5,2.7,1.2,3.9,2.2c2.2-2,4.4-3,6.7-3
		C258.1,139.5,259.3,141,258.8,142.7z M230.4,183.7c1.2,2.5,3.6,3.8,10.3,3.8c10,0,12.7-2.6,12.7-4.1c0-1.2-0.6-2.1-2-2.6
		c-2.2-0.7-6.5-0.4-9.9-0.4c-4.6,0-7-0.2-9.6-0.8C232,179.6,229.4,181.5,230.4,183.7z M245.8,150.2c-1.6-3.6-3.6-6.3-6-8
		c-2.4-1.8-4.7-1.8-6.8,0c-1.6,1.3-2.2,3.7-1.9,7.2c0.3,3.5,1.3,6.8,2.8,9.9c1.8,4,3.9,6.7,6.1,8c2.3,1.3,4.3,1.6,6,0.8
		c1.5-0.7,2.3-2.1,2.6-4.2C249.2,159.7,247.7,154.9,245.8,150.2z"/>
	<path d="M278,174.3v0.6l-16.7,0v-0.5c0.2-0.1,0.5-0.2,0.8-0.3c2-0.7,3.3-2.8,3.3-5.7l0-23.2c-0.1-2.7-1.3-4.6-3-5.3
		c-0.3-0.1-0.6-0.2-0.9-0.3V139l12.2,0v0l0.1,29.2c0,3,1.3,5.1,3.3,5.7C277.5,174.1,277.8,174.2,278,174.3z M298.9,174.8l-16.7,0
		v-0.5c0.2-0.1,0.5-0.2,0.8-0.3c2-0.7,3.3-2.8,3.3-5.7c0,0,0-15.5-0.1-16.6c-0.1-2.4-0.8-5-2.4-5.9c-1.3-1-3.1-1.2-5.4-0.7
		c-1,0.2-2,0.6-2.8,1.1v-0.9c1.1-1,2.3-1.9,3.6-2.7c2.8-1.9,5.7-2.6,8.8-2.4c3.6,0.3,5,2.2,5.9,4.5c0.7,1.7,0.7,5.2,0.7,5.9
		c0,1.5,0.1,17.8,0.1,17.8c0,3,1.3,5.1,3.3,5.7c0.3,0.1,0.6,0.2,0.8,0.3L298.9,174.8z"/>
</g>
</svg>
