<?xml version="1.0" encoding="utf-8"?>
<!-- Generator: Adobe Illustrator 28.0.0, SVG Export Plug-In . SVG Version: 6.00 Build 0)  -->
<svg version="1.1" id="Layer_1" xmlns="http://www.w3.org/2000/svg" xmlns:xlink="http://www.w3.org/1999/xlink" x="0px" y="0px"
	 viewBox="0 0 300 184.2" style="enable-background:new 0 0 300 184.2;" xml:space="preserve">
<style type="text/css">
	.st0{fill:#FFFFFF;}
	.st1{font-family:'Poppins-Regular';}
	.st2{font-size:65.5891px;}
</style>
<text transform="matrix(1 0 0 1 26.3675 83.0171)" class="st0 st1 st2">tanja</text>
<text transform="matrix(1 0 0 1 50.51 144.5706)" class="st0 st1 st2">design</text>
<g>
	<path class="st0" d="M274.2,5.7c11.1,0,20.1,9,20.1,20.1v132.5c0,11.1-9,20.1-20.1,20.1H25.8c-11.1,0-20.1-9-20.1-20.1V25.8
		c0-11.1,9-20.1,20.1-20.1H274.2 M274.2,0H25.8C11.6,0,0,11.6,0,25.8v132.5c0,14.3,11.6,25.8,25.8,25.8h248.4
		c14.3,0,25.8-11.6,25.8-25.8V25.8C300,11.6,288.5,0,274.2,0L274.2,0z"/>
</g>
</svg>
